<?xml version="1.0" encoding="UTF-8"?>
<svg width="45px" height="45px" viewBox="0 0 45 45" version="1.1" xmlns="http://www.w3.org/2000/svg" xmlns:xlink="http://www.w3.org/1999/xlink">
    <title>icn-kontakt</title>
    <g id="Stand-01.10." stroke="none" stroke-width="1" fill="none" fill-rule="evenodd">
        <g id="Icons-Nav" transform="translate(-421.000000, -72.000000)">
            <g id="icn-kontakt" transform="translate(421.000000, 72.000000)">
                <rect id="Rectangle" x="0" y="0" width="45" height="45"></rect>
                <g id="Group-7" transform="translate(13.000000, 6.000000)" stroke="#FF6600" stroke-linecap="round" stroke-linejoin="round" stroke-width="1.16444444">
                    <path d="M0,0 L17.2593393,0 C18.2200526,0 19,0.749764869 19,1.6760166 L19,31.3239834 C19,32.2496266 18.2200526,33 17.2593393,33 L1.74066066,33 C0.778683344,33 0,32.2496266 0,31.3239834 L0,2.882213" id="Stroke-1"></path>
                    <path d="M3.16666667,3.14285714 L14.6730654,3.14285714 C15.3145243,3.14285714 15.8333333,3.66325213 15.8333333,4.30454075 L15.8333333,22.4109723 C15.8333333,23.0510336 15.3145243,23.5714286 14.6730654,23.5714286 L4.32816106,23.5714286 C3.68670217,23.5714286 3.16666667,23.0510336 3.16666667,22.4109723 L3.16666667,3.14285714 Z" id="Stroke-3"></path>
                    <path d="M7.91666667,28.2857143 C7.91666667,27.4175308 8.6258185,26.7142857 9.50036592,26.7142857 C10.3756452,26.7142857 11.0833333,27.4175308 11.0833333,28.2857143 C11.0833333,29.1526669 10.3756452,29.8571429 9.50036592,29.8571429 C8.6258185,29.8571429 7.91666667,29.1526669 7.91666667,28.2857143 Z" id="Stroke-5"></path>
                </g>
            </g>
        </g>
    </g>
</svg>