<?xml version="1.0" encoding="UTF-8"?>
<svg width="45px" height="45px" viewBox="0 0 45 45" version="1.1" xmlns="http://www.w3.org/2000/svg" xmlns:xlink="http://www.w3.org/1999/xlink">
    <title>icn-cumulus</title>
    <g id="Stand-01.10." stroke="none" stroke-width="1" fill="none" fill-rule="evenodd">
        <g id="Icons-Nav" transform="translate(-121.000000, -72.000000)">
            <g id="Group-5" transform="translate(121.000000, 72.000000)">
                <rect id="Rectangle" x="0" y="0" width="45" height="45"></rect>
                <g id="Group-4" transform="translate(2.000000, 9.000000)">
                    <path d="M7.10910067,12.1310256 C7.04957812,11.6537861 6.69173424,11.4020553 6.20067323,11.4020553 C5.44672098,11.4020553 5.15477706,12.1025561 5.15477706,12.8023077 C5.15477706,13.5020593 5.44601238,14.1965665 6.20067323,14.1965665 C6.75054819,14.1965665 7.06871037,13.8669191 7.10910067,13.327496 L8.28821397,13.327496 C8.22231401,14.5396995 7.3663231,15.2536859 6.2290173,15.2536859 C4.86354175,15.2536859 3.98345838,14.1688462 3.98345838,12.8023077 C3.98345838,11.4365184 4.86354175,10.3516787 6.2290173,10.3516787 C7.2026361,10.3516787 8.25561829,10.9959896 8.28821397,12.1310256 L7.10910067,12.1310256 L7.10910067,12.1310256 Z" id="Shape" fill="#FF6600" fill-rule="nonzero"></path>
                    <polygon id="Shape" fill="#FF6600" fill-rule="nonzero" points="17.906366 15.1555409 17.906366 12.4389463 16.7853581 15.1555409 16.1688746 15.1555409 15.0705419 12.4389463 15.0705419 15.1555409 13.9176468 15.1555409 13.9176468 10.4505729 15.4602728 10.4505729 16.5210496 13.1042348 17.6335544 10.4505729 19.0585525 10.4505729 19.0585525 15.1555409"></polygon>
                    <path d="M34.871301,15.2544351 C34.1095541,15.2544351 33.4002438,14.9667428 33.0827902,14.7427324 L33.5993609,13.7905008 C33.8828016,13.9650641 34.4397625,14.2452644 34.9563332,14.2452644 C35.2489857,14.2452644 35.6188758,14.1898237 35.6188758,13.8534335 C35.6188758,13.5320272 35.209304,13.433133 34.6650979,13.2720553 C34.0167273,13.0772636 33.255689,12.8105489 33.255689,11.8927804 C33.255689,10.9053365 34.0967993,10.3516787 35.1894632,10.3516787 C35.9108198,10.3516787 36.4755753,10.6176442 36.7597246,10.9045873 L36.1304863,11.6470433 C35.8187015,11.457496 35.4991221,11.3031611 35.1419869,11.3031611 C34.718243,11.3031611 34.4751926,11.4717308 34.4751926,11.7242107 C34.4751926,11.9691987 34.7848516,12.0875721 35.1752911,12.2141867 C35.8711381,12.4389463 36.8128698,12.6622075 36.8128698,13.6076963 C36.8121612,14.5816546 36.0688379,15.2544351 34.871301,15.2544351 Z" id="Shape" fill="#FF6600" fill-rule="nonzero"></path>
                    <path d="M22.8300316,10.401875 L22.8300316,13.2375921 C22.8300316,13.8399479 22.6167425,14.1486178 22.0420664,14.1486178 C21.464556,14.1486178 21.2526841,13.8399479 21.2526841,13.2375921 L21.2526841,10.5906731 C21.2526841,10.4917788 21.1669433,10.401875 21.0797853,10.401875 L20.0813654,10.401875 L20.0813654,13.1604247 C20.0813654,14.5262139 20.6780081,15.204988 22.042775,15.204988 C23.4061248,15.204988 24.0034761,14.5262139 24.0034761,13.1604247 L24.0034761,10.401875 L22.8300316,10.401875 L22.8300316,10.401875 Z" id="Shape" fill="#FF6600" fill-rule="nonzero"></path>
                    <path d="M31.3339611,10.401875 L31.3339611,13.2375921 C31.3339611,13.8399479 31.120672,14.1486178 30.545996,14.1486178 C29.9755716,14.1486178 29.759448,13.8399479 29.759448,13.2375921 L29.759448,10.5906731 C29.759448,10.4917788 29.67229,10.401875 29.585132,10.401875 L28.5852949,10.401875 L28.5852949,13.1604247 C28.5852949,14.5262139 29.188315,15.204988 30.5467046,15.204988 C31.9114715,15.204988 32.5130744,14.5262139 32.5130744,13.1604247 L32.5130744,10.401875 L31.3339611,10.401875 L31.3339611,10.401875 Z" id="Shape" fill="#FF6600" fill-rule="nonzero"></path>
                    <path d="M11.70084,10.401875 L11.70084,13.2375921 C11.70084,13.8399479 11.4875508,14.1486178 10.9128748,14.1486178 C10.3424504,14.1486178 10.1234925,13.8399479 10.1234925,13.2375921 L10.1234925,10.5906731 C10.1234925,10.4917788 10.0384603,10.401875 9.95201086,10.401875 L8.9514652,10.401875 L8.9514652,13.1604247 C8.9514652,14.5262139 9.54810787,15.204988 10.9135834,15.204988 C12.2769332,15.204988 12.8735758,14.5262139 12.8735758,13.1604247 L12.8735758,10.401875 L11.70084,10.401875 L11.70084,10.401875 Z" id="Shape" fill="#FF6600" fill-rule="nonzero"></path>
                    <path d="M27.9418846,14.0984215 L26.0208652,14.0984215 L26.0208652,10.639371 C26.0208652,10.5404768 25.9351244,10.4505729 25.841589,10.4505729 L24.8481293,10.4505729 L24.8481293,14.6857933 C24.8481293,14.9465144 25.0472464,15.1555409 25.2931312,15.1555409 L28.1211608,15.1555409 L28.1211608,14.2879687 C28.1211608,14.1898237 28.0340028,14.0984215 27.9418846,14.0984215 Z" id="Shape" fill="#FF6600" fill-rule="nonzero"></path>
                    <path d="M40.7942023,24.9228446 C40.7942023,26.0548838 39.9261652,26.9711538 38.8568852,26.9711538 L1.93660856,26.9711538 C0.868037135,26.9711538 0,26.0541346 0,24.9228446 L0,2.04830929 C0,0.917768429 0.868037135,0 1.93660856,0 L38.8568852,0 C39.9268738,0 40.7942023,0.917768429 40.7942023,2.04830929 L40.7942023,24.9228446 Z" id="Shape" stroke="#FF6600" stroke-width="1.2" stroke-linecap="round" stroke-linejoin="round"></path>
                </g>
            </g>
        </g>
    </g>
</svg>