<?xml version="1.0" encoding="utf-8"?>
<!-- Generator: Adobe Illustrator 21.0.2, SVG Export Plug-In . SVG Version: 6.00 Build 0)  -->
<svg version="1.1" id="Ebene_1" xmlns="http://www.w3.org/2000/svg" xmlns:xlink="http://www.w3.org/1999/xlink" x="0px" y="0px"
	 viewBox="0 0 36 53" style="enable-background:new 0 0 36 53;" xml:space="preserve">
<style type="text/css">
	.st0{fill:#FFFFFF;}
	.st1{opacity:0.758;fill:url(#SVGID_1_);enable-background:new    ;}
	.st2{fill:#189CD8;}
</style>
<circle class="st0" cx="23.6" cy="8.2" r="7.1"/>
<linearGradient id="SVGID_1_" gradientUnits="userSpaceOnUse" x1="1.4889" y1="987.5362" x2="20.1064" y2="987.5362" gradientTransform="matrix(1 0 0 1 0 -946)">
	<stop  offset="0" style="stop-color:#D7D7D7"/>
	<stop  offset="1" style="stop-color:#919191"/>
</linearGradient>
<path class="st1" d="M20,51.1l-11.2-14c1.1-1.4,1.3-3.4,0.2-4.9c-1.3-1.9-3.9-2.4-5.8-1.1c-1.9,1.3-2.4,3.9-1.1,5.8
	c1.1,1.7,3.2,2.3,5,1.5l11.4,14.2c0.2,0.2,0.7,0.1,1-0.4c0,0,0-0.1,0.1-0.1C20.1,51.8,20.2,51.4,20,51.1z"/>
<path class="st2" d="M24.5,0c-4.5-0.5-8.5,2.8-9,7.3c-0.4,4.1,2.3,7.9,6.3,8.8l-3.7,35.6c-0.1,0.6,0.4,1.1,0.9,1.2h0.1
	c0.5,0,1-0.4,1-0.9l3.7-35.6c1.8,0,3.5-0.7,5-1.8c1.7-1.4,2.8-3.3,3-5.5C32.3,4.5,29,0.5,24.5,0z M29.7,8.8c-0.2,1.6-1,3.1-2.2,4.1
	c-1.3,1-2.8,1.5-4.5,1.3c-3.3-0.3-5.8-3.3-5.4-6.7c0.3-3.1,3-5.4,6-5.4c0.2,0,0.4,0,0.6,0C27.6,2.5,30.1,5.5,29.7,8.8z"/>
<path class="st2" d="M24.1,9.9c-0.3,0.1-0.6,0.2-0.9,0.1c-0.5,0-0.9-0.3-1.2-0.6c-0.3-0.4-0.4-0.8-0.4-1.3c0-0.4,0.3-0.8,0.6-1.1
	c0.4-0.4,0.5-1,0.1-1.5c-0.4-0.4-1-0.5-1.5-0.1c-0.7,0.6-1.2,1.5-1.3,2.5c-0.1,1,0.2,2,0.8,2.8c0.6,0.8,1.6,1.3,2.6,1.4
	c0.1,0,0.3,0,0.4,0c0.5,0,1.1-0.1,1.6-0.3s0.8-0.9,0.5-1.4C25.3,9.9,24.6,9.7,24.1,9.9z"/>
</svg>
