<svg xmlns="http://www.w3.org/2000/svg" width="127" height="28" viewBox="52 149 127 28"><path fill="#F59C00" d="M114.2 157.4c-.4 0-.8 0-1.2.1-1.8.2-3.2.8-4.3 1.6v-1.4h-4.8v2.4c-2-2-5.7-2.9-8.6-2.9-4.8 0-10.5 2.1-10.5 8 0 5.8 5.6 8 10.5 8 3.3 0 6.4-1 8.5-2.8v7.2h5v-6.5c.8.8 2.3 1.6 4.3 1.9.4.1.8.1 1.4.1 3.9 0 9.1-2.4 9.1-7.9-.2-5.2-4.4-7.8-9.4-7.8zm-19 12.1c-2.5 0-4.4-2-4.4-4.4s2-4.4 4.4-4.4c2.5 0 4.4 2 4.4 4.4s-2 4.4-4.4 4.4zm17.8.3c-2.5 0-4.5-2-4.5-4.7 0-2.6 2-4.6 4.5-4.6h.1c2.5 0 4.4 2 4.4 4.6 0 2.4-1.8 4.7-4.5 4.7z"/><path fill="#EA5B0C" d="M149.5 152.3h-5.2v3.6h5.2v-3.6zm-69.3 4.9c-4.8 0-10.5 2-10.5 8 0 .8.1 1.5.3 2.1-1 1.2-2.7 2.3-4.8 2.3-2.8 0-4.8-1.8-4.8-4.5 0-2.5 2-4.4 4.5-4.4 1.3 0 2.2.4 2.8.8l2-3.2c-1-.5-3-1.3-5.7-1.3-5.1 0-10 2.7-10 8.2 0 5.4 4.5 8.2 9.8 8.2 3.4 0 6.1-1.7 7.6-3.4 2 2.2 5.4 3.2 8.8 3.2 4.7 0 10.5-2 10.5-8 .1-5.9-5.5-8-10.5-8zm0 12.4c-2.5 0-4.4-2-4.4-4.4s2-4.4 4.4-4.4c2.5 0 4.4 2 4.4 4.4s-2 4.4-4.4 4.4zm92.6-11.9l-3.7 9.9-3.2-9.9h-8.4v-5.5l-5.1.7v4.8h-8v9.2c-1.3 1.4-3.6 2.6-5.7 2.6-2.8 0-4.8-1.8-4.8-4.5 0-2.5 2-4.4 4.5-4.4 1.3 0 2.2.4 2.8.8l2-3.2c-1-.5-3-1.3-5.7-1.3-5 0-9.9 2.7-9.9 8.2s4.5 8.2 9.8 8.2c3 0 5.4-1.3 7-2.7v2h5.2v-11h2.8v6.9c0 .8.1 1.4.3 2 .3.6.5 1 .9 1.4s.9.7 1.5.8c.6.2 1.3.3 2 .3 1.4 0 2.5-.2 3.4-.5.9-.3 1.7-.8 2.4-1.4l-1.5-2.9c-.3.3-.7.5-1.1.7-.4.2-.8.3-1.3.3-.6 0-1-.1-1.3-.3-.3-.2-.4-.6-.4-1.1v-6h4.3l4.5 11-2.2 5.1h5.4l8.5-20h-5v-.2z"/><path fill="#C9450A" d="M87.7 171c-1.8-1.3-3.1-3.1-3.1-5.9 0-2.7 1.3-4.7 3.1-5.9 1.8 1.3 3.1 3.2 3.1 5.9 0 2.8-1.3 4.7-3.1 5.9z"/></svg>