<svg width="128" height="38" viewBox="0 0 128 38" xmlns="http://www.w3.org/2000/svg"><g fill="none" fill-rule="evenodd"><path d="M47.982 22.926c-4.481 0-8.093-3.581-8.093-7.993 0-4.413 3.612-7.994 8.093-7.994 4.45 0 8.061 3.581 8.061 7.994 0 4.412-3.612 7.993-8.061 7.993zM61.624 4.083C57.848 1.488 52.734.384 47.982.384c-8.9 0-19.314 3.773-19.314 14.453 0 1.408.226 2.718.45 3.837-1.901 2.11-5.03 4.188-8.9 4.188-5.094 0-8.706-3.229-8.706-8.185 0-4.605 3.579-7.993 8.254-7.993 2.354 0 4.096.799 5.064 1.438L28.57 2.24C26.7 1.312 23.056 0 18.22 0 9.06 0 0 4.892 0 14.742 0 24.556 8.158 29.61 17.93 29.61c6.19 0 11.156-3.071 13.96-6.14 3.646 3.933 9.804 5.789 16.092 5.789 4.613 0 9.801-1.046 13.642-3.664V4.083z" fill="#EA5B0C"/><path d="M108.4 23.022h-.095c-4.515-.065-8.192-3.55-8.192-8.538 0-4.796 3.773-8.313 8.192-8.347h.096c4.644 0 8.126 3.68 8.126 8.283 0 4.445-3.386 8.602-8.126 8.602m-32.699-.609c-4.45 0-8.061-3.581-8.061-7.993 0-4.444 3.612-8.025 8.061-8.025 4.452 0 8.064 3.581 8.064 8.025 0 4.412-3.612 7.993-8.064 7.993M110.463.575c-.741 0-1.45.064-2.158.129-3.321.384-5.935 1.565-7.966 2.973V1.055h-8.932v4.252C87.636 1.534 80.96 0 75.736 0h-.034C70.951 0 65.792 1.1 62 3.73v21.421c3.767 2.611 8.901 3.721 13.702 3.721h.034c5.997 0 11.671-1.885 15.478-5.082v13.43h9.125V25.29c1.42 1.313 4.127 2.943 7.966 3.423.772.095 1.58.16 2.418.16 7.19 0 16.573-4.284 16.573-14.358 0-9.368-7.578-13.94-16.833-13.94" fill="#F59C00"/><path d="M61.612 25.518C58.322 23.28 56 19.794 56 14.776 56 9.786 58.257 6.303 61.612 4c3.32 2.303 5.61 5.786 5.61 10.776 0 5.018-2.29 8.473-5.61 10.742" fill="#C9450A"/></g></svg>