<svg xmlns="http://www.w3.org/2000/svg" width="20" height="20" viewBox="0 0 20 20"><g><g transform="translate(3)"><g><path fill="#FF8C00" d="M7 .3C4.001.3.5 2.215.5 7.612c0 4.933 5.793 11.576 6.04 11.856.13.148.316.232.509.232.16-.026.382-.086.512-.236.243-.28 5.939-6.922 5.939-11.852C13.5 2.215 9.998.3 7 .3"/></g><defs><filter id="a" filterUnits="userSpaceOnUse" x="-3" y="0" width="20" height="20"><feColorMatrix values="1 0 0 0 0 0 1 0 0 0 0 0 1 0 0 0 0 0 1 0"/></filter></defs><mask maskUnits="userSpaceOnUse" x="-3" y="0" width="20" height="20" id="b"><g filter="url(#a)"><path fill="#FFF" d="M7 .3C4.001.3.5 2.215.5 7.612c0 4.933 5.793 11.576 6.04 11.856.13.148.316.232.509.232.16-.026.382-.086.512-.236.243-.28 5.939-6.922 5.939-11.852C13.5 2.215 9.998.3 7 .3"/></g></mask><g mask="url(#b)"><g><path fill="#FF8C00" d="M-3 0h20v20H-3z"/></g></g></g><g transform="translate(5 3)"><g><path fill="#FFF" d="M7.1 6.374H2.9V3.519L5 2.048l2.1 1.47v2.856zm1.798-3.329L5.398.618c-.039-.027-.084-.042-.127-.06C5.25.547 5.229.533 5.207.525 5.188.52 5.168.521 5.15.517a.695.695 0 00-.301 0c-.018.004-.037.003-.057.008-.021.008-.042.022-.063.033-.044.018-.088.033-.128.061l-3.5 2.427a.7.7 0 00-.176.974.695.695 0 00.575.289v2.765a.7.7 0 00.701.7H7.8a.7.7 0 00.7-.7V4.32a.7.7 0 00.398-1.275z"/></g><defs><filter id="c" filterUnits="userSpaceOnUse" x="-5" y="-3" width="20" height="20"><feColorMatrix values="1 0 0 0 0 0 1 0 0 0 0 0 1 0 0 0 0 0 1 0"/></filter></defs><mask maskUnits="userSpaceOnUse" x="-5" y="-3" width="20" height="20" id="d"><g filter="url(#c)"><path fill="#FFF" d="M7.1 6.374H2.9V3.519L5 2.048l2.1 1.47v2.856zm1.798-3.329L5.398.618c-.039-.027-.084-.042-.127-.06C5.25.547 5.229.533 5.207.525 5.188.52 5.168.521 5.15.517a.695.695 0 00-.301 0c-.018.004-.037.003-.057.008-.021.008-.042.022-.063.033-.044.018-.088.033-.128.061l-3.5 2.427a.7.7 0 00-.176.974.695.695 0 00.575.289v2.765a.7.7 0 00.701.7H7.8a.7.7 0 00.7-.7V4.32a.7.7 0 00.398-1.275z"/></g></mask><g mask="url(#d)"><g><path fill="#FFF" d="M-5-3h20v20H-5z"/></g></g></g></g></svg>