<?xml version="1.0" ?><!DOCTYPE svg  PUBLIC '-//W3C//DTD SVG 1.1//EN'  'http://www.w3.org/Graphics/SVG/1.1/DTD/svg11.dtd'><svg enable-background="new 0 0 128 128" height="128px" id="Layer_1" version="1.1" viewBox="0 0 128 128" width="128px" xml:space="preserve" xmlns="http://www.w3.org/2000/svg" xmlns:xlink="http://www.w3.org/1999/xlink"><g><g><path d="M64,128C28.71,128,0,99.29,0,64S28.71,0,64,0s64,28.71,64,64S99.29,128,64,128z M64,8    C33.122,8,8,33.122,8,64c0,30.879,25.122,56,56,56c30.879,0,56-25.121,56-56C120,33.122,94.879,8,64,8z" fill="#010101"/></g><g><path d="M59.6,70.66c-0.121-1.123-1.139-2.141-2.261-2.261l-30.443-3.273c-1.123-0.121-1.2-0.602-0.171-1.067    l66.068-29.877c1.029-0.466,1.49-0.004,1.025,1.024l-29.877,66.07c-0.465,1.027-0.945,0.952-1.065-0.17L59.6,70.66z" fill="#010101"/></g></g></svg>